<svg xmlns="http://www.w3.org/2000/svg" width="47.149" height="56.373" viewBox="0 0 47.149 56.373"><g id="Group_24" data-name="Group 24" transform="translate(-0.41 6)"><path id="Path_10" data-name="Path 10" d="M7.567,45,.41,49.129l7.157,3.854,7.157-3.854Z" transform="translate(0 -11.418)" fill="#97a0e9"></path><path id="Path_11" data-name="Path 11" d="M.41,50.533l7.157,3.854v8.808L.41,59.341Z" transform="translate(0 -12.822)" fill="#7986e4"></path><path id="Path_12" data-name="Path 12" d="M17.157,50.533,10,54.386v8.808l7.157-3.854Z" transform="translate(-2.433 -12.822)" fill="#4c41ec"></path><path id="Path_13" data-name="Path 13" d="M7.567,45,.41,49.129l7.157,3.854Z" transform="translate(0 -11.418)" fill="#b5bbef" fill-rule="evenodd"></path><path id="Path_14" data-name="Path 14" d="M51.567,45,44.41,49.129l7.157,3.854,7.157-3.854Z" transform="translate(-11.164 -11.418)" fill="#97a0e9"></path><path id="Path_15" data-name="Path 15" d="M44.41,50.533l7.157,3.854v8.808L44.41,59.341Z" transform="translate(-11.164 -12.822)" fill="#7986e4"></path><path id="Path_16" data-name="Path 16" d="M61.157,50.533,54,54.386v8.808l7.157-3.854Z" transform="translate(-13.598 -12.822)" fill="#4c41ec"></path><path id="Path_17" data-name="Path 17" d="M51.567,45,44.41,49.129l7.157,3.854Z" transform="translate(-11.164 -11.418)" fill="#b5bbef" fill-rule="evenodd"></path><path id="Path_18" data-name="Path 18" d="M26.418,19v3.411A7.463,7.463,0,0,1,21.4,29.462l-6.379,2.21A7.463,7.463,0,0,0,10,38.724v3.411" transform="translate(-2.433 -4.821)" fill="none" stroke="#78e9a7" stroke-linecap="round" stroke-width="3"></path><path id="Path_19" data-name="Path 19" d="M32,19v3.411a7.463,7.463,0,0,0,5.019,7.051l6.379,2.21a7.463,7.463,0,0,1,5.019,7.051v3.411" transform="translate(-8.016 -4.821)" fill="none" stroke="#78e9a7" stroke-linecap="round" stroke-width="3"></path><g id="Group_11" data-name="Group 11" transform="translate(0 -6)"><path id="Path_20" data-name="Path 20" d="M28.7,0,19,5.6l9.7,5.224L38.4,5.6Z" transform="translate(-4.717)" fill="#97a0e9"></path><path id="Path_21" data-name="Path 21" d="M19,7.5l9.7,5.224v11.94L19,19.44Z" transform="translate(-4.717 -1.903)" fill="#7986e4"></path><path id="Path_22" data-name="Path 22" d="M41.7,7.5,32,12.724v11.94l9.7-5.224Z" transform="translate(-8.016 -1.903)" fill="#4c41ec"></path><path id="Path_23" data-name="Path 23" d="M28.7,0,19,5.6l9.7,5.224Z" transform="translate(-4.717)" fill="#b5bbef" fill-rule="evenodd"></path></g></g></svg>