<svg xmlns="http://www.w3.org/2000/svg" width="58.741" height="64.292" viewBox="0 0 58.741 64.292"><g id="Group_25" data-name="Group 25" transform="translate(-1481.28 -1323.354)"><g id="Group_8" data-name="Group 8" transform="translate(1506.852 1323.354)"><path id="Path_25" data-name="Path 25" d="M30.88,0,19,6.854l11.88,6.4,11.88-6.4Z" transform="translate(-19)" fill="#97a0e9" opacity="0.1"></path><path id="Path_26" data-name="Path 26" d="M19,7.5l11.88,6.4V28.518L19,22.121Z" transform="translate(-19 -0.646)" fill="#dbdce8"></path><path id="Path_27" data-name="Path 27" d="M43.88,7.5,32,13.9V28.518l11.88-6.4Z" transform="translate(-20.12 -0.646)" fill="#bcbece"></path><path id="Path_28" data-name="Path 28" d="M30.88,0,19,6.854l11.88,6.4Z" transform="translate(-19)" fill="#fff" fill-rule="evenodd"></path></g><g id="Group_9" data-name="Group 9" transform="translate(1481.28 1355.952)"><path id="Path_32" data-name="Path 32" d="M300.689,20.21l-2.707,2.707L294,18.934l9.864-9.864a5.293,5.293,0,0,1,5.693-1.179,5.294,5.294,0,0,1,6.684.658.34.34,0,0,1,0,.481L302.875,22.4Z" transform="translate(-263.473 -6.287)" fill="#e3a996" fill-rule="evenodd"></path><path id="Path_33" data-name="Path 33" d="M94.75,5.944l-6.9,6.9a1.041,1.041,0,0,0-.01,1.462l8.28,8.5a1.041,1.041,0,0,0,1.482.01l1.976-1.976a1.041,1.041,0,0,1,.587-.294l22.321-3.232a1.041,1.041,0,0,0,.587-.294L137,3.1a.87.87,0,0,0,0-1.231,5.84,5.84,0,0,0-8.251-.009l-7.761,7.728a.809.809,0,0,1-.57.236h-3.205l.673-.653a3.438,3.438,0,0,0-2.393-5.905H101.228A9.161,9.161,0,0,0,94.75,5.944Z" transform="translate(-78.513 -0.154)" fill="#ecc6b3"></path><rect id="Rectangle_18" data-name="Rectangle 18" width="12.451" height="17.525" transform="translate(0 19.302) rotate(-45)" fill="#dbdce8"></rect><path id="Path_34" data-name="Path 34" d="M294,79.561A1.561,1.561,0,0,1,295.561,78h8.952v1.561Z" transform="translate(-263.473 -69.896)" fill="#e3a996"></path></g></g></svg>