<svg xmlns="http://www.w3.org/2000/svg" width="42.179" height="62.519" viewBox="0 0 42.179 62.519"><g id="Group_27" data-name="Group 27" transform="translate(-860.132 -341.836)"><rect id="Rectangle_13" data-name="Rectangle 13" width="3.568" height="51.511" transform="translate(861.078 354.372) rotate(-45)" fill="#181e27"></rect><path id="Path_1" data-name="Path 1" d="M181.787,230.791,185.578,227h8.641a3.848,3.848,0,0,1-3.19,3.791h3.246v10.035H179V230.791Z" transform="translate(585.424 344.792) rotate(-45)" fill="#ecc6b3" fill-rule="evenodd"></path><path id="Path_2" data-name="Path 2" d="M399.275,101H386.007v14.048a2.007,2.007,0,1,0,0,4.014h13.268Z" transform="translate(535.791 552.748) rotate(-45)" fill="#8796ae" fill-rule="evenodd"></path><rect id="Rectangle_14" data-name="Rectangle 14" width="19.958" height="13.825" transform="translate(860.132 394.58) rotate(-45)" fill="#5e6a7d"></rect><path id="Path_3" data-name="Path 3" d="M279.731,34H261V51.5h16.613v2.007h2.118V34Z" transform="translate(655.162 517.565) rotate(-45)" fill="#5e6a7d" fill-rule="evenodd"></path><path id="Path_4" data-name="Path 4" d="M384,191h3.01a2.007,2.007,0,1,1,0,4.014h-1A2.007,2.007,0,0,0,384,197.021V191Z" transform="translate(479.247 496.204) rotate(-45)" fill="#3e4858" fill-rule="evenodd"></path><rect id="Rectangle_15" data-name="Rectangle 15" width="6.355" height="10.035" transform="translate(881.497 375.106) rotate(-45)" fill="#e3a996"></rect></g></svg>