<svg xmlns="http://www.w3.org/2000/svg" width="49.501" height="58.094" viewBox="0 0 49.501 58.094"><g id="Group_26" data-name="Group 26" transform="translate(153.158 -1366.681)"><path id="Path_5" data-name="Path 5" d="M158.947,47.532a4.055,4.055,0,0,0,2,1.091,19.829,19.829,0,0,1-4.85,6.911v12a1.876,1.876,0,0,1-1.394,1.7L134.4,72.872A1.145,1.145,0,0,1,133,71.781v-5.7l-5.638.727a4.075,4.075,0,0,1-4.122-4.062V55.535h-1.879c-2.182,0-3.152-1.576-2.122-3.516l4-7.639V41.107a19.376,19.376,0,0,1,11.336-17.641c.182-.121.425-.182.606-.3a4.053,4.053,0,0,0,.97,1.516l.242.242a15.824,15.824,0,0,0-.606,1.516h-.364a4.126,4.126,0,0,0-4.122,4.122V33.65a4.126,4.126,0,0,0,4.122,4.122h.364c.182.545.425,1.031.606,1.516l-.243.243a4.173,4.173,0,0,0,0,5.82l2.182,2.182a4.1,4.1,0,0,0,5.819,0l.242-.242a15.829,15.829,0,0,0,1.516.606v.364a4.126,4.126,0,0,0,4.122,4.122h3.092a4.126,4.126,0,0,0,4.122-4.122V47.9c.546-.182,1.03-.425,1.516-.606Z" transform="translate(-271.986 1351.884)" fill="#22c281"></path><path id="Path_6" data-name="Path 6" d="M172.883,27.855V30.9a1.134,1.134,0,0,1-1.135,1.135h-2.569a13.729,13.729,0,0,1-2.031,4.9l1.793,1.792a1.193,1.193,0,0,1,0,1.613l-2.151,2.151a1.193,1.193,0,0,1-1.613,0L163.384,40.7a14.192,14.192,0,0,1-4.9,2.031V45.3a1.134,1.134,0,0,1-1.135,1.135H154.3a1.134,1.134,0,0,1-1.135-1.135V42.732a13.73,13.73,0,0,1-4.9-2.031l-1.792,1.793a1.193,1.193,0,0,1-1.613,0l-2.151-2.151a1.193,1.193,0,0,1,0-1.613l1.792-1.792a14.192,14.192,0,0,1-2.031-4.9H139.9a1.134,1.134,0,0,1-1.135-1.135V27.855a1.134,1.134,0,0,1,1.135-1.135h2.569a13.73,13.73,0,0,1,2.031-4.9l-1.792-1.793a1.193,1.193,0,0,1,0-1.613l2.151-2.151a1.14,1.14,0,0,1,1.614-.06L148.268,18a14.192,14.192,0,0,1,4.9-2.031V13.456A1.134,1.134,0,0,1,154.3,12.32h3.047a1.134,1.134,0,0,1,1.135,1.135v2.569a13.73,13.73,0,0,1,4.9,2.031l1.793-1.792a1.193,1.193,0,0,1,1.613,0l2.151,2.151a1.193,1.193,0,0,1,0,1.613l-1.793,1.793a14.191,14.191,0,0,1,2.031,4.9h2.569a1.1,1.1,0,0,1,1.135,1.135ZM163.8,29.348a7.946,7.946,0,1,0-7.946,7.946A7.981,7.981,0,0,0,163.8,29.348Z" transform="translate(-276.54 1354.36)" fill="#fcfcfc"></path><ellipse id="Ellipse_1" data-name="Ellipse 1" cx="5.494" cy="5.573" rx="5.494" ry="5.573" transform="matrix(1, -0.017, 0.017, 1, -126.346, 1378.229)" fill="#fff"></ellipse><path id="Intersection_1" data-name="Intersection 1" d="M-895.494,58.666a4.078,4.078,0,0,0,1.586.318A4.08,4.08,0,0,0-891,57.772l.242-.242a15.877,15.877,0,0,0,1.516.607V58.5a4.127,4.127,0,0,0,4.122,4.122h3.091a4.127,4.127,0,0,0,4.122-4.122v-.364c.545-.182,1.031-.425,1.516-.607l.183.241a4.056,4.056,0,0,0,2,1.092,19.829,19.829,0,0,1-4.849,6.91v12a1.876,1.876,0,0,1-1.395,1.7l-15.044,2.695Z" transform="translate(763.168 1341.645)" fill="#22c281"></path><path id="Intersection_2" data-name="Intersection 2" d="M-893.932,58.984h.024A4.08,4.08,0,0,0-891,57.772l.242-.242a15.877,15.877,0,0,0,1.516.607V58.5a4.127,4.127,0,0,0,4.122,4.122h3.091a4.127,4.127,0,0,0,4.122-4.122v-.364c.545-.182,1.031-.425,1.516-.607l.183.241a4.056,4.056,0,0,0,2,1.092,19.829,19.829,0,0,1-4.849,6.91v12a1.876,1.876,0,0,1-1.395,1.7l-4.487.8Z" transform="translate(763.168 1341.645)" fill="#1ca86f"></path></g></svg>