<svg width="1440" height="1091" viewBox="0 0 1440 1091" fill="none" xmlns="http://www.w3.org/2000/svg">
<g opacity="0.6" clip-path="url(#clip0)">
<path d="M1119.5 492.499L1088 524.259V818.342" stroke="black" stroke-width="2" stroke-miterlimit="10"/>
<path d="M1139.77 501.113L1105.03 535.908V1045.54" stroke="#EBEAF8" stroke-width="2" stroke-miterlimit="10"/>
<path d="M1226.05 1.77759L1225.89 345.311L1215.97 355.608" stroke="#EBEAF8" stroke-width="2" stroke-miterlimit="10"/>
<path d="M1234.85 1.77759L1235.78 356.393L1226.8 364.401L1224.78 366.491" stroke="#C7C0FC" stroke-width="2" stroke-miterlimit="10"/>
<path d="M1247.1 1.77759L1247.93 371.502L1237.76 380.361" stroke="#EBEAF8" stroke-width="2" stroke-miterlimit="10"/>
<path d="M1260.5 1.77759L1262.37 383.831L1251.79 392.644" stroke="#EBEAF8" stroke-width="2" stroke-miterlimit="10"/>
<path d="M1274.65 2.72308L1276.54 399.253L1266.79 407.592" stroke="#EBEAF8" stroke-width="2" stroke-miterlimit="10"/>
<path d="M1491.73 473.684L1258 483.243L1245.5 469.93" stroke="#C7C0FC" stroke-width="2" stroke-miterlimit="10"/>
<path d="M1491.63 461.619L1271.24 470.63L1258.74 457.317" stroke="#EBEAF8" stroke-width="2" stroke-miterlimit="10"/>
<path d="M1491.73 487.526L1242.86 497.766L1230.36 484.453" stroke="#EBEAF8" stroke-width="2" stroke-miterlimit="10"/>
<path d="M1491.1 501.548L1228.66 512.431L1216.16 499.118" stroke="#C7C0FC" stroke-width="2" stroke-miterlimit="10"/>
<path d="M1491.1 515.901L1214.47 527.389L1201.97 514.076" stroke="#EBEAF8" stroke-width="2" stroke-miterlimit="10"/>
<path d="M947.464 2.72308L944.115 247.999" stroke="#EBEAF8" stroke-width="2" stroke-miterlimit="10"/>
<path d="M957.343 2.72308L952.99 257.293" stroke="#EBEAF8" stroke-width="2" stroke-miterlimit="10"/>
<path d="M1043.91 1.77759L1044.01 214.339L1034.37 223.709" stroke="#EBEAF8" stroke-width="2" stroke-miterlimit="10"/>
<path d="M1057.05 1.77759L1056.79 226.678L1046.87 236.095" stroke="#EBEAF8" stroke-width="2" stroke-miterlimit="10"/>
<path d="M1071.78 2.72308L1071.45 243.943L1061.61 253.246" stroke="#EBEAF8" stroke-width="2" stroke-miterlimit="10"/>
<path d="M1088.09 394.516L698.146 0.832092" stroke="#C7C0FC" stroke-width="2" stroke-linejoin="bevel"/>
<path d="M1097.11 385.495L716.125 0.832092" stroke="#EBEAF8" stroke-width="2" stroke-miterlimit="10"/>
<path d="M1107.97 376.343L735.997 0.832092" stroke="#EBEAF8" stroke-width="2" stroke-miterlimit="10"/>
<path d="M1116.59 366.037L754.921 0.832031" stroke="#EBEAF8" stroke-width="2" stroke-miterlimit="10"/>
<path d="M1126.77 357.092L774.793 0.832031" stroke="#EBEAF8" stroke-width="2" stroke-miterlimit="10"/>
<path d="M1136.44 349.273L791.825 0.832092" stroke="#EBEAF8" stroke-width="2" stroke-miterlimit="10"/>
<path d="M1146.54 336.357L805.035 -4.87885" stroke="#EBEAF8" stroke-width="2" stroke-miterlimit="10"/>
<path d="M1119.5 492.499L1088 524.259V818.342" stroke="#EBEAF8" stroke-width="2" stroke-miterlimit="10"/>
<path d="M1139.77 501.113L1105.03 535.908V1045.54" stroke="#EBEAF8" stroke-width="2" stroke-miterlimit="10"/>
<path d="M1226.05 1.77759L1225.89 345.311L1215.97 355.608" stroke="#EBEAF8" stroke-width="2" stroke-miterlimit="10"/>
<path d="M1234.85 1.77759L1235.78 356.393L1226.8 364.401L1224.78 366.491" stroke="#C7C0FC" stroke-width="2" stroke-miterlimit="10"/>
<path d="M1247.1 1.77759L1247.93 371.502L1237.76 380.361" stroke="#EBEAF8" stroke-width="2" stroke-miterlimit="10"/>
<path d="M1260.5 1.77759L1262.37 383.831L1251.79 392.644" stroke="#EBEAF8" stroke-width="2" stroke-miterlimit="10"/>
<path d="M1274.65 2.72308L1276.54 399.253L1266.79 407.592" stroke="#EBEAF8" stroke-width="2" stroke-miterlimit="10"/>
<path d="M1491.73 473.684L1258 483.243L1245.5 469.93" stroke="#C7C0FC" stroke-width="2" stroke-miterlimit="10"/>
<path d="M1491.63 461.619L1271.24 470.63L1258.74 457.317" stroke="#EBEAF8" stroke-width="2" stroke-miterlimit="10"/>
<path d="M1491.73 487.526L1242.86 497.766L1230.36 484.453" stroke="#EBEAF8" stroke-width="2" stroke-miterlimit="10"/>
<path d="M1491.1 501.548L1228.66 512.431L1216.16 499.118" stroke="#C7C0FC" stroke-width="2" stroke-miterlimit="10"/>
<path d="M1491.1 515.901L1214.47 527.389L1201.97 514.076" stroke="#EBEAF8" stroke-width="2" stroke-miterlimit="10"/>
<path d="M947.464 2.72308L944.115 247.999" stroke="#EBEAF8" stroke-width="2" stroke-miterlimit="10"/>
<path d="M957.343 2.72308L952.99 257.293" stroke="#EBEAF8" stroke-width="2" stroke-miterlimit="10"/>
<path d="M1043.91 1.77759L1044.01 214.339L1034.37 223.709" stroke="#EBEAF8" stroke-width="2" stroke-miterlimit="10"/>
<path d="M1057.05 1.77759L1056.79 226.678L1046.87 236.095" stroke="#EBEAF8" stroke-width="2" stroke-miterlimit="10"/>
<path d="M1071.78 2.72308L1071.45 243.943L1061.61 253.246" stroke="#EBEAF8" stroke-width="2" stroke-miterlimit="10"/>
<path d="M1088.09 394.516L698.146 0.832092" stroke="#C7C0FC" stroke-width="2" stroke-linejoin="bevel"/>
<path d="M1097.11 385.495L716.125 0.832092" stroke="#EBEAF8" stroke-width="2" stroke-miterlimit="10"/>
<path d="M1107.97 376.343L735.997 0.832092" stroke="#EBEAF8" stroke-width="2" stroke-miterlimit="10"/>
<path d="M1116.59 366.037L754.921 0.832031" stroke="#EBEAF8" stroke-width="2" stroke-miterlimit="10"/>
<path d="M1126.77 357.092L774.793 0.832031" stroke="#EBEAF8" stroke-width="2" stroke-miterlimit="10"/>
<path d="M1136.44 349.273L791.825 0.832092" stroke="#EBEAF8" stroke-width="2" stroke-miterlimit="10"/>
<path d="M1146.54 336.357L805.035 -4.87885" stroke="#EBEAF8" stroke-width="2" stroke-miterlimit="10"/>
<path d="M1119.5 492.499L1088 524.259V818.342" stroke="#EBEAF8" stroke-width="3" stroke-miterlimit="10"/>
<path d="M1139.77 501.113L1105.03 535.908V1045.54" stroke="#EBEAF8" stroke-width="3" stroke-miterlimit="10"/>
<path d="M1226.05 1.77759L1225.89 345.311L1215.97 355.608" stroke="#EBEAF8" stroke-width="3" stroke-miterlimit="10"/>
<path d="M1234.85 1.77759L1235.78 356.393L1226.8 364.401L1224.78 366.491" stroke="#C7C0FC" stroke-width="3" stroke-miterlimit="10"/>
<path d="M1247.1 1.77759L1247.93 371.502L1237.76 380.361" stroke="#EBEAF8" stroke-width="3" stroke-miterlimit="10"/>
<path d="M1260.5 1.77759L1262.37 383.831L1251.79 392.644" stroke="#EBEAF8" stroke-width="3" stroke-miterlimit="10"/>
<path d="M1274.65 2.72308L1276.54 399.253L1266.79 407.592" stroke="#EBEAF8" stroke-width="3" stroke-miterlimit="10"/>
<path d="M1491.73 473.684L1258 483.243L1245.5 469.93" stroke="#C7C0FC" stroke-width="3" stroke-miterlimit="10"/>
<path d="M1491.63 461.619L1271.24 470.63L1258.74 457.317" stroke="#EBEAF8" stroke-width="3" stroke-miterlimit="10"/>
<path d="M1491.73 487.526L1242.86 497.766L1230.36 484.453" stroke="#EBEAF8" stroke-width="3" stroke-miterlimit="10"/>
<path d="M1491.1 501.548L1228.66 512.431L1216.16 499.118" stroke="#C7C0FC" stroke-width="3" stroke-miterlimit="10"/>
<path d="M1491.1 515.901L1214.47 527.389L1201.97 514.076" stroke="#EBEAF8" stroke-width="3" stroke-miterlimit="10"/>
<path d="M947.464 2.72308L944.115 247.999" stroke="#EBEAF8" stroke-width="3" stroke-miterlimit="10"/>
<path d="M957.343 2.72308L952.99 257.293" stroke="#EBEAF8" stroke-width="3" stroke-miterlimit="10"/>
<path d="M1043.91 1.77759L1044.01 214.339L1034.37 223.709" stroke="#EBEAF8" stroke-width="3" stroke-miterlimit="10"/>
<path d="M1057.05 1.77759L1056.79 226.678L1046.87 236.095" stroke="#EBEAF8" stroke-width="3" stroke-miterlimit="10"/>
<path d="M1071.78 2.72308L1071.45 243.943L1061.61 253.246" stroke="#EBEAF8" stroke-width="3" stroke-miterlimit="10"/>
<path d="M1088.09 394.516L698.146 0.832092" stroke="#C7C0FC" stroke-width="3" stroke-linejoin="bevel"/>
<path d="M1097.11 385.495L716.125 0.832092" stroke="#EBEAF8" stroke-width="3" stroke-miterlimit="10"/>
<path d="M1107.97 376.343L735.997 0.832092" stroke="#EBEAF8" stroke-width="3" stroke-miterlimit="10"/>
<path d="M1116.59 366.037L754.921 0.832031" stroke="#EBEAF8" stroke-width="3" stroke-miterlimit="10"/>
<path d="M1126.77 357.092L774.793 0.832031" stroke="#EBEAF8" stroke-width="3" stroke-miterlimit="10"/>
<path d="M1136.44 349.273L791.825 0.832092" stroke="#EBEAF8" stroke-width="3" stroke-miterlimit="10"/>
<path d="M1146.54 336.357L805.035 -4.87885" stroke="#EBEAF8" stroke-width="3" stroke-miterlimit="10"/>
<path d="M1119.79 1012.76L1119.71 1017.69M1101.42 1014.99L1101.34 1019.93L1101.42 1014.99ZM1095.3 1014.99L1095.22 1019.93L1095.3 1014.99ZM1108.12 1014.63L1108.04 1019.57L1108.12 1014.63ZM1115.77 1014.63L1115.7 1019.57L1115.77 1014.63ZM1092.71 1012.76L1092.64 1017.69L1092.71 1012.76ZM1104.48 1012.76L1104.4 1017.69L1104.48 1012.76ZM1098.35 1012.76L1098.28 1017.69L1098.35 1012.76ZM1112.13 1012.76L1112.06 1017.69L1112.13 1012.76Z" stroke="#E8E6F4" stroke-miterlimit="10"/>
<path d="M1093.86 1046.14H1088.84M1123.19 1028.17H1118.18H1123.19ZM1123.19 1021.55H1118.18H1123.19ZM1123.19 1035.73H1118.18H1123.19ZM1123.19 1042.35H1118.18H1123.19ZM1125.09 1019.66H1120.07H1125.09ZM1125.09 1031.01H1120.07H1125.09ZM1125.09 1025.33H1120.07H1125.09ZM1125.09 1038.57H1120.07H1125.09ZM1125.09 1046.14H1120.07H1125.09ZM1091.02 1028.17H1086.01H1091.02ZM1091.02 1021.55H1086.01H1091.02ZM1091.02 1035.73H1086.01H1091.02ZM1091.02 1042.35H1086.01H1091.02ZM1093.86 1019.66H1088.84H1093.86ZM1093.86 1031.01H1088.84H1093.86ZM1093.86 1025.33H1088.84H1093.86ZM1093.86 1038.57H1088.84H1093.86Z" stroke="#E8E6F4" stroke-miterlimit="10"/>
<path d="M1125.85 1011.59H1086.11V1054.13H1125.85V1011.59Z" fill="#EBEAF8"/>
<path d="M1112.17 1045.52V1050.53M1102.71 1047.41V1052.42V1047.41ZM1095.14 1047.41V1052.42V1047.41ZM1109.33 1047.41V1052.42V1047.41ZM1115.95 1047.41V1052.42V1047.41ZM1093.24 1045.52V1050.53V1045.52ZM1104.6 1045.52V1050.53V1045.52ZM1098.92 1045.52V1050.53V1045.52Z" stroke="#E8E6F4" stroke-miterlimit="10"/>
<path d="M1101.02 808.528H1071.92V838.538H1101.02V808.528Z" fill="#EBEAF8"/>
<path d="M1094.75 810.901V813.908M1083.38 812.196V815.203V812.196ZM1079.6 812.196V815.203V812.196ZM1087.53 811.979V815.033V811.979ZM1092.26 812.026V815.033V812.026ZM1078.01 810.901V813.908V810.901ZM1085.29 810.901V813.908V810.901ZM1081.5 810.901V813.908V810.901ZM1090.02 810.901V813.908V810.901Z" stroke="#E8E6F4" stroke-miterlimit="10"/>
<path d="M1078.79 832.062H1075.78M1097.36 820.706H1094.35H1097.36ZM1097.36 816.924H1094.35H1097.36ZM1097.58 824.847H1094.52H1097.58ZM1097.53 829.575H1094.52H1097.53ZM1098.66 815.336H1095.65H1098.66ZM1098.66 822.607H1095.65H1098.66ZM1098.66 818.824H1095.65H1098.66ZM1098.66 827.334H1095.65H1098.66ZM1098.66 832.062H1095.65H1098.66ZM1077.49 820.706H1074.48H1077.49ZM1077.49 816.924H1074.48H1077.49ZM1077.71 824.847H1074.65H1077.71ZM1077.66 829.575H1074.65H1077.66ZM1078.79 815.336H1075.78H1078.79ZM1078.79 822.607H1075.78H1078.79ZM1078.79 818.824H1075.78H1078.79ZM1078.79 827.334H1075.78H1078.79Z" stroke="#E8E6F4" stroke-miterlimit="10"/>
<path d="M1090.96 831.702V834.709M1084.33 832.998V836.004V832.998ZM1080.55 832.998V836.004V832.998ZM1088.47 832.78V835.834V832.78ZM1093.21 832.827V835.834V832.827ZM1078.96 831.702V834.709V831.702ZM1086.23 831.702V834.709V831.702ZM1082.45 831.702V834.709V831.702Z" stroke="#E8E6F4" stroke-miterlimit="10"/>
<path d="M1172.65 303.335L1048.2 427.691L1171.98 551.378L1296.43 427.023L1172.65 303.335Z" fill="#EBEAF8"/>
<path d="M1144.34 551.386L1162.13 533.421M1048.63 455.312L1066.43 437.347L1048.63 455.312ZM1062.3 469.003L1080.49 450.679L1062.3 469.003ZM1075.97 482.723L1093.57 464.966L1075.97 482.723ZM1089.6 496.48L1107.29 478.657L1089.6 496.48ZM1103.27 510.209L1121.02 492.376L1103.27 510.209ZM1116.99 523.928L1134.76 506.03L1116.99 523.928ZM1130.67 537.657L1148.74 519.446L1130.67 537.657Z" stroke="#C7C0FC" stroke-width="3" stroke-miterlimit="10" stroke-linecap="square"/>
<path d="M1169.66 540.465L1163.89 546.138M1074.89 444.174L1067.7 451.284L1074.89 444.174ZM1060.13 431.504L1054.01 437.603L1060.13 431.504ZM1087.9 458.621L1081.47 464.966L1087.9 458.621ZM1100.62 473.324L1095.2 478.647L1100.62 473.324ZM1114.7 486.656L1108.93 492.329L1114.7 486.656ZM1128.41 500.356L1122.66 506.03L1128.41 500.356ZM1141.75 514.445L1136.39 519.721L1141.75 514.445ZM1156.26 527.389L1150.16 533.412L1156.26 527.389Z" stroke="#C7C0FC" stroke-width="3" stroke-miterlimit="10" stroke-linecap="square"/>
<path d="M862.52 33.0812L825.051 70.5217L861.182 106.625L898.652 69.1845L862.52 33.0812Z" fill="#EBEAF8"/>
<path d="M860.902 43.3802L864.687 39.5981M863.504 95.1471L867.762 99.4019L863.504 95.1471ZM832.278 66.7817L836.536 71.0365L832.278 66.7817ZM874.859 83.8009L879.117 88.0557L874.859 83.8009ZM843.633 56.381L847.891 60.6358L843.633 56.381ZM869.181 89.474L873.439 93.7288L869.181 89.474ZM837.955 61.1086L842.213 65.3634L837.955 61.1086ZM879.59 78.1278L883.848 82.3826L879.59 78.1278ZM849.31 50.7079L853.568 54.9627L849.31 50.7079ZM885.268 72.4547L889.526 76.7096L885.268 72.4547ZM854.988 45.0348L859.246 49.2897L854.988 45.0348ZM864.45 90.4195L868.708 94.6743L864.45 90.4195ZM834.17 62.9996L838.428 67.2544L834.17 62.9996ZM875.805 80.0189L880.063 84.2737L875.805 80.0189ZM845.525 51.6534L849.783 55.9083L845.525 51.6534ZM870.128 84.7464L874.386 89.0012L870.128 84.7464ZM839.848 57.3265L844.106 61.5813L839.848 57.3265ZM881.483 74.3458L885.741 78.6006L881.483 74.3458ZM851.203 45.9804L855.461 50.2352L851.203 45.9804ZM887.16 68.6727L891.418 72.9275L887.16 68.6727ZM855.934 40.3073L860.192 44.5621L855.934 40.3073ZM857.117 99.1655L860.902 95.3835L857.117 99.1655ZM887.397 67.018L891.182 63.236L887.397 67.018ZM845.762 87.8193L849.547 84.0373L845.762 87.8193ZM876.042 56.6174L879.827 52.8353L876.042 56.6174ZM851.439 93.4924L855.224 89.7104L851.439 93.4924ZM881.719 61.345L885.504 57.5629L881.719 61.345ZM840.084 83.0918L843.869 79.3097L840.084 83.0918ZM871.31 50.9443L875.095 47.1623L871.31 50.9443ZM834.407 77.4187L838.192 73.6366L834.407 77.4187ZM865.633 45.2712L869.418 41.4892L865.633 45.2712ZM853.332 98.22L857.117 94.4379L853.332 98.22ZM883.612 66.0725L887.397 62.2905L883.612 66.0725ZM841.977 86.8738L845.762 83.0918L841.977 86.8738ZM872.257 54.7264L876.042 50.9443L872.257 54.7264ZM847.654 92.5469L851.439 88.7649L847.654 92.5469ZM877.934 60.3994L881.719 56.6174L877.934 60.3994ZM836.299 81.2007L840.084 77.4187L836.299 81.2007ZM866.579 49.0533L870.364 45.2712L866.579 49.0533ZM830.622 75.5277L834.407 71.7456L830.622 75.5277Z" stroke="#E8E6F4" stroke-miterlimit="10" stroke-linecap="square"/>
<path d="M128.703 699.595L-25.7346 544.502" stroke="#EBEAF8" stroke-width="2" stroke-miterlimit="10"/>
<path d="M128.703 699.595L-25.7346 544.502" stroke="#EBEAF8" stroke-width="3" stroke-miterlimit="10"/>
<path d="M128.703 699.595L-25.7346 544.502" stroke="#EBEAF8" stroke-width="2" stroke-miterlimit="10"/>
<path d="M135.959 676.81L107.623 705.124L134.106 731.587L162.442 703.272L135.959 676.81Z" fill="#EBEAF8"/>
<path d="M139.462 719.025L141.279 720.841M148.924 709.57L152.208 712.851L148.924 709.57ZM145.139 713.352L148.423 716.633L145.139 713.352ZM141.354 717.134L144.638 720.415L141.354 717.134ZM137.569 720.916L140.853 724.197L137.569 720.916ZM152.709 705.788L155.993 709.069L152.709 705.788ZM150.817 707.679L152.633 709.495L150.817 707.679ZM147.032 711.461L148.848 713.277L147.032 711.461ZM143.247 715.243L145.064 717.059L143.247 715.243Z" stroke="#E8E6F4" stroke-miterlimit="10"/>
<path d="M130.804 688.618L128.987 686.802M121.341 698.073L118.058 694.792L121.341 698.073ZM125.126 694.291L121.843 691.01L125.126 694.291ZM128.911 690.509L125.628 687.228L128.911 690.509ZM132.696 686.727L129.413 683.446L132.696 686.727ZM117.556 701.855L114.273 698.574L117.556 701.855ZM119.449 699.964L117.632 698.148L119.449 699.964ZM123.234 696.182L121.417 694.366L123.234 696.182ZM127.019 692.4L125.202 690.584L127.019 692.4Z" stroke="#E8E6F4" stroke-miterlimit="10"/>
<path d="M150.817 699.018L152.633 697.203M141.354 689.563L144.638 686.282L141.354 689.563ZM145.139 693.345L148.423 690.064L145.139 693.345ZM148.924 697.127L152.208 693.846L148.924 697.127ZM152.709 700.909L155.993 697.628L152.709 700.909ZM137.569 685.781L140.853 682.5L137.569 685.781ZM139.462 687.672L141.279 685.857L139.462 687.672ZM143.247 691.454L145.064 689.639L143.247 691.454ZM147.032 695.236L148.848 693.421L147.032 695.236Z" stroke="#E8E6F4" stroke-miterlimit="10"/>
<path d="M118.54 708.644L116.723 710.459M128.003 718.099L124.719 721.38L128.003 718.099ZM124.218 714.317L120.934 717.598L124.218 714.317ZM120.433 710.535L117.149 713.816L120.433 710.535ZM116.648 706.753L113.364 710.034L116.648 706.753ZM131.788 721.881L128.504 725.162L131.788 721.881ZM129.895 719.99L128.078 721.805L129.895 719.99ZM126.11 716.208L124.293 718.023L126.11 716.208ZM122.325 712.426L120.508 714.241L122.325 712.426Z" stroke="#E8E6F4" stroke-miterlimit="10"/>
</g>
<defs>
<clipPath id="clip0">
<rect width="1514" height="1091" fill="white" transform="translate(-23)"/>
</clipPath>
</defs>
</svg>
