<svg width="439" height="626" viewBox="0 0 439 626" fill="none" xmlns="http://www.w3.org/2000/svg">
<g opacity="0.4">
<mask id="mask0" mask-type="alpha" maskUnits="userSpaceOnUse" x="0" y="0" width="673" height="626">
<path d="M0 0L672.629 0L672.629 625.833L0 625.833L0 0Z" fill="white"/>
</mask>
<g mask="url(#mask0)">
<path fill-rule="evenodd" clip-rule="evenodd" d="M558.38 55.6296L345.989 277.015L348.888 319.156L541.991 117.585L601.231 55.6296L558.38 55.6296ZM517.725 241.514L324.718 443.171L368.005 443.143L579.96 221.359L577.056 179.642L517.725 241.514Z" fill="#28EB9B"/>
<path fill-rule="evenodd" clip-rule="evenodd" d="M261.071 442.719L49.0649 664.104L51.9618 706.245L244.712 504.674L303.845 442.719H261.071ZM220.49 628.603L27.833 830.26L71.0413 830.232L282.613 608.449L279.714 566.731L220.49 628.603ZM526.467 442.719L314.461 664.104L317.358 706.245L510.108 504.674L569.242 442.719H526.467ZM485.887 628.603L293.229 830.26L336.438 830.232L548.007 608.449L545.108 566.731L485.887 628.603Z" fill="#28EB9B"/>
</g>
</g>
</svg>
