<svg width="146" height="39" viewBox="0 0 146 39" fill="none" xmlns="http://www.w3.org/2000/svg">
<path d="M47.7388 25.2944V13.0662H51.8006V10.116H40.6149V13.0662H44.6341V25.2944H47.7388ZM56.3726 25.2944V20.0782C56.3726 18.0259 57.3934 17.0425 58.7331 17.0425C59.9453 17.0425 60.6045 17.9832 60.6045 19.5224V25.2944H63.5179V19.0307C63.5179 16.2515 61.9868 14.3703 59.4136 14.3703C58.0314 14.3703 56.9255 14.9689 56.3726 15.824V9.26093H53.4593V25.2944H56.3726ZM71.0884 25.5296C73.7891 25.5296 75.8944 23.969 76.5324 21.8098H73.4914C73.1512 22.5367 72.258 22.9856 71.2373 22.9856C69.4297 22.9856 68.494 21.8953 68.3664 20.634H76.66C76.8088 16.615 74.2357 14.3703 71.1097 14.3703C67.8773 14.3703 65.5168 16.7432 65.5168 19.9286C65.5168 23.178 67.8348 25.5296 71.0884 25.5296ZM73.4701 18.71H68.4727C68.7492 17.5342 69.6849 16.7432 71.0246 16.7432C72.0241 16.7432 73.1086 17.2777 73.4701 18.71ZM90.993 25.551C95.48 25.551 99.1164 22.4512 98.4359 16.2088H90.6314V19.1162H95.2461C94.9058 21.2112 93.4385 22.5581 90.993 22.5581C88.0583 22.5581 86.1444 20.4202 86.1444 17.7052C86.1444 14.9902 88.0583 12.8524 90.9504 12.8524C92.3965 12.8524 93.8 13.4938 94.5443 14.6054H98.0744C97.0536 11.7408 94.119 9.85951 90.9504 9.85951C86.3783 9.85951 83.0396 13.3014 83.0396 17.7052C83.0396 22.1091 86.3783 25.551 90.993 25.551ZM103.518 25.2944V20.1851C103.518 18.4321 104.433 17.3418 105.815 17.3418C106.283 17.3418 106.687 17.4273 107.134 17.577V14.6054C106.772 14.4985 106.453 14.4772 106.155 14.4772C104.964 14.4772 103.88 15.2681 103.518 16.3157V14.6054H100.605V25.2944H103.518ZM112.939 25.5296C114.406 25.5296 115.533 24.7814 116.001 24.0973V25.2944H118.915V14.6054H116.001V15.8026C115.533 15.1185 114.406 14.3703 112.939 14.3703C110.111 14.3703 107.942 16.9143 107.942 19.9499C107.942 22.9856 110.111 25.5296 112.939 25.5296ZM113.556 22.8573C111.961 22.8573 110.876 21.6174 110.876 19.9499C110.876 18.2824 111.961 17.0425 113.556 17.0425C115.151 17.0425 116.235 18.2824 116.235 19.9499C116.235 21.6174 115.151 22.8573 113.556 22.8573ZM124.656 29.7624V24.0973C125.145 24.7814 126.273 25.5296 127.74 25.5296C130.568 25.5296 132.737 22.9856 132.737 19.9499C132.737 16.9143 130.568 14.3703 127.74 14.3703C126.273 14.3703 125.145 15.1185 124.656 15.8026V14.6054H121.743V29.7624H124.656ZM127.102 22.8573C125.507 22.8573 124.422 21.6174 124.422 19.9499C124.422 18.2824 125.507 17.0425 127.102 17.0425C128.697 17.0425 129.781 18.2824 129.781 19.9499C129.781 21.6174 128.697 22.8573 127.102 22.8573ZM137.777 25.2944V20.0782C137.777 18.0259 138.798 17.0425 140.138 17.0425C141.35 17.0425 142.009 17.9832 142.009 19.5224V25.2944H144.922V19.0307C144.922 16.2515 143.391 14.3703 140.818 14.3703C139.436 14.3703 138.33 14.9689 137.777 15.824V9.26093H134.864V25.2944H137.777Z" fill="#959AA1"/>
<path fill-rule="evenodd" clip-rule="evenodd" d="M28.6995 25.4395C29.3754 26.1159 29.4177 27.1862 28.8263 27.9119L28.6995 28.0522L21.3154 35.4423C20.5945 36.1638 19.4258 36.1638 18.7049 35.4423C18.029 34.7659 17.9868 33.6956 18.5782 32.97L18.7049 32.8296L26.089 25.4395C26.8099 24.718 27.9786 24.718 28.6995 25.4395ZM18.1643 2.72876C24.2813 2.72876 29.2401 7.69164 29.2401 13.8136C29.2401 19.9356 24.2813 24.8985 18.1643 24.8985C12.0473 24.8985 7.0885 19.9356 7.0885 13.8136C7.0885 7.69164 12.0473 2.72876 18.1643 2.72876ZM18.1643 6.42371C14.0864 6.42371 10.7804 9.73215 10.7804 13.8136C10.7804 17.8951 14.0864 21.2035 18.1643 21.2035C22.2424 21.2035 25.5482 17.8951 25.5482 13.8136C25.5482 9.73215 22.2424 6.42371 18.1643 6.42371ZM31.0863 2.72876C32.1057 2.72876 32.9321 3.55576 32.9321 4.57624C32.9321 5.59672 32.1057 6.42371 31.0863 6.42371C30.0667 6.42371 29.2403 5.59672 29.2403 4.57624C29.2403 3.55576 30.0667 2.72876 31.0863 2.72876Z" fill="#959AA1"/>
</svg>
